# Blender 3.6.3
# www.blender.org
mtllib plane_center.mtl
o Плоскость.033
v -0.084555 0.003353 0.096695
v -0.084710 0.003353 -0.098307
v 0.086073 0.003353 0.096559
v 0.085917 0.003353 -0.098444
v -0.084555 -0.003472 0.096695
v -0.084710 -0.003472 -0.098307
v 0.086073 -0.003472 0.096559
v 0.085917 -0.003472 -0.098444
vn -0.0000 -1.0000 -0.0000
vn -1.0000 -0.0000 0.0008
vn -0.0008 -0.0000 -1.0000
vn 0.0008 -0.0000 1.0000
vn 0.0400 0.9992 -0.0000
vt 0.012798 0.012798
vt 0.444343 0.012798
vt 0.444343 0.505992
vt 0.012798 0.505992
vt 0.969940 0.505992
vt 0.969940 0.012798
vt 0.987202 0.012798
vt 0.987202 0.505992
vt 0.055657 0.963134
vt 0.055657 0.531589
vt 0.072919 0.531589
vt 0.072919 0.963134
vt 0.012798 0.963134
vt 0.012798 0.531589
vt 0.030060 0.531589
vt 0.030060 0.963134
vt 0.469940 0.505992
vt 0.469940 0.012798
vt 0.927081 0.012798
vt 0.944343 0.012798
vt 0.944343 0.505992
vt 0.901485 0.505992
s 0
f 6/1/1 8/2/1 7/3/1 5/4/1
f 1/5/2 2/6/2 6/7/2 5/8/2
f 2/9/3 4/10/3 8/11/3 6/12/3
f 3/13/4 1/14/4 5/15/4 7/16/4
f 2/17/5 1/18/5 3/19/5 7/20/5 8/21/5 4/22/5
